<?xml version="1.0" encoding="iso-8859-1"?>
<svg version="1.1" id="Layer_1" xmlns="http://www.w3.org/2000/svg" xmlns:xlink="http://www.w3.org/1999/xlink" x="0px" y="0px"
	 viewBox="0 0 512.002 512.002" style="enable-background:new 0 0 512.002 512.002;" xml:space="preserve">
<g>
	<path style="fill:#DD2645;" d="M303.127,337.424l-47.125-47.127l-47.177,47.176c-9.429,9.429-24.866,9.431-34.297,0
		c-9.432-9.429-9.432-24.866,0-34.297L221.705,256l-47.127-47.127c-9.435-9.434-9.435-24.866-0.002-34.297
		c9.431-9.431,24.864-9.433,34.299,0l47.125,47.127l47.176-47.177c9.435-9.431,24.868-9.431,34.298,0
		c9.435,9.432,9.432,24.866,0,34.298L290.299,256l47.127,47.127c9.435,9.433,9.435,24.868,0.002,34.299
		C327.996,346.856,312.561,346.856,303.127,337.424L303.127,337.424z M255.998,10.768C190.619,49.371,122.235,78.587,48.453,98.8
		v110.043c0,206.457,178.555,292.388,207.546,292.388c28.995,0,207.555-85.931,207.555-292.388V98.801
		C393.964,79.732,321.161,49.244,255.998,10.768z"/>
	<path style="fill:#FFCD85;" d="M256.002,290.298l47.125,47.127c9.435,9.432,24.869,9.432,34.3,0.002
		c9.432-9.431,9.432-24.866-0.002-34.299L290.3,256l47.177-47.176c9.432-9.432,9.435-24.866,0-34.298
		c-9.43-9.431-24.864-9.431-34.298,0l-47.176,47.177l-47.125-47.127c-9.436-9.433-24.868-9.431-34.299,0
		c-9.432,9.431-9.432,24.864,0.002,34.297L221.706,256l-47.178,47.176c-9.432,9.431-9.432,24.868,0,34.297
		c9.431,9.431,24.868,9.429,34.297,0L256.002,290.298z"/>
</g>
<g>
	<path style="fill:#000003;" d="M466.397,88.411C395.95,69.11,325.089,39.055,261.477,1.496c-3.379-1.996-7.572-1.995-10.951,0
		C185.083,40.133,118.052,68.563,45.605,88.411c-4.68,1.282-7.924,5.535-7.924,10.388v110.047
		c0,113.323,52.279,188.335,96.136,231.306c47.217,46.264,102.215,71.849,122.184,71.849c19.967,0,74.967-25.586,122.183-71.849
		c43.857-42.971,96.136-117.983,96.136-231.306V98.798C474.321,93.945,471.077,89.692,466.397,88.411z M452.781,208.845
		c0,105.842-48.761,175.838-89.67,215.92c-46.431,45.495-96.075,65.695-107.108,65.695c-11.033,0-60.679-20.2-107.109-65.695
		c-40.907-40.082-89.67-110.079-89.67-215.92v-101.87c69.282-19.672,133.799-47.122,196.782-83.724
		c61.412,35.631,129.15,64.446,196.777,83.72V208.845z"/>
	<path style="fill:#000003;" d="M180.959,107.836c1.422,0,2.867-0.283,4.257-0.882l0.202-0.089l-4.232-9.904l4.263,9.891
		c5.463-2.354,7.982-8.69,5.628-14.154c-2.355-5.462-8.688-7.981-14.154-5.628l-0.234,0.102c-5.463,2.354-7.983,8.69-5.63,14.154
		C172.818,105.398,176.788,107.836,180.959,107.836z"/>
	<path style="fill:#000003;" d="M160.537,105.772c-2.18-5.535-8.435-8.251-13.969-6.073c-19.217,7.571-38.964,14.549-58.694,20.74
		c-4.49,1.41-7.545,5.57-7.545,10.276v41.589c0,5.948,4.823,10.77,10.77,10.77s10.77-4.822,10.77-10.77v-33.718
		c17.696-5.726,35.355-12.054,52.596-18.845C159.999,117.56,162.716,111.306,160.537,105.772z"/>
	<path style="fill:#000003;" d="M282.542,433.457l-0.656,0.384c-5.131,3.009-6.849,9.609-3.838,14.74
		c2.004,3.417,5.604,5.321,9.3,5.321c1.851,0,3.728-0.478,5.44-1.482l0.675-0.395c5.128-3.016,6.839-9.617,3.824-14.743
		C294.269,432.153,287.667,430.441,282.542,433.457z"/>
	<path style="fill:#000003;" d="M307.572,416.552c-4.73,3.606-5.641,10.364-2.037,15.095c2.121,2.781,5.328,4.241,8.574,4.241
		c2.276,0,4.571-0.718,6.521-2.205c11.75-8.957,22.96-18.929,33.32-29.64c12.611-13.047,23.883-27.128,33.498-41.852
		c3.254-4.98,1.854-11.654-3.128-14.907c-4.979-3.253-11.653-1.852-14.906,3.128c-8.872,13.584-19.287,26.591-30.951,38.659
		C328.858,399.003,318.464,408.249,307.572,416.552z"/>
	<path style="fill:#000003;" d="M216.491,166.959c-6.597-6.596-15.391-10.228-24.765-10.228s-18.168,3.633-24.765,10.229
		c-6.597,6.597-10.228,15.39-10.228,24.765c0.001,9.373,3.634,18.168,10.23,24.765L206.475,256l-39.562,39.561
		c-6.596,6.597-10.228,15.391-10.228,24.766c0,9.375,3.633,18.17,10.227,24.764c6.597,6.596,15.391,10.228,24.765,10.227
		c9.375,0,18.17-3.633,24.765-10.227l39.561-39.561l39.511,39.511c6.599,6.597,15.394,10.228,24.768,10.228
		c9.373,0,18.167-3.632,24.764-10.226c13.654-13.655,13.654-35.875-0.003-49.531L305.531,256l39.562-39.561
		c6.596-6.596,10.228-15.39,10.228-24.764c0.001-9.374-3.633-18.17-10.227-24.765c-6.596-6.596-15.39-10.229-24.765-10.229
		c-9.373,0-18.168,3.632-24.766,10.228l-39.56,39.561L216.491,166.959z M310.793,182.143c2.529-2.529,5.915-3.92,9.536-3.92
		c3.62,0,7.005,1.392,9.534,3.92c2.528,2.527,3.919,5.913,3.919,9.532c0,3.62-1.393,7.006-3.919,9.534l-47.178,47.176
		c-2.019,2.019-3.155,4.759-3.155,7.616c0,2.856,1.135,5.596,3.155,7.616l47.128,47.127c5.257,5.258,5.259,13.812,0.002,19.067
		c-2.527,2.527-5.913,3.918-9.534,3.918c-3.62,0.001-7.008-1.392-9.536-3.92l-47.128-47.127c-4.205-4.206-11.024-4.206-15.232,0
		l-47.176,47.176c-2.527,2.527-5.913,3.918-9.534,3.919c-3.62,0-7.006-1.391-9.534-3.919c-2.528-2.527-3.919-5.912-3.919-9.532
		c0-3.621,1.393-7.006,3.919-9.534l47.178-47.176c2.02-2.02,3.156-4.759,3.156-7.616c0-2.856-1.135-5.596-3.155-7.616
		l-47.127-47.128c-2.529-2.529-3.921-5.915-3.922-9.534c0-3.619,1.391-7.005,3.92-9.532c2.528-2.528,5.913-3.92,9.534-3.92
		c3.62,0,7.007,1.393,9.536,3.92l47.123,47.127c2.02,2.02,4.76,3.155,7.617,3.155c2.855,0,5.595-1.135,7.614-3.155L310.793,182.143z
		"/>
</g>
<g>
</g>
<g>
</g>
<g>
</g>
<g>
</g>
<g>
</g>
<g>
</g>
<g>
</g>
<g>
</g>
<g>
</g>
<g>
</g>
<g>
</g>
<g>
</g>
<g>
</g>
<g>
</g>
<g>
</g>
</svg>
